<?xml version="1.0"?>
<svg xmlns="http://www.w3.org/2000/svg" version="1.2" baseProfile="tiny" width="800" height="627" viewBox="0 0 800 627" stroke-linecap="round" stroke-linejoin="round">
<g id="21SM">
<path d="M 721.3946 127.3057 725.9497 133.6861 729.5883 135.8639 730.1415 137.7712 734.6324 139.675 741.3981 140.8506 747.6002 149.1499 751.7583 150.4927 752.3819 151.6857 755.3115 148.6419 758.7114 147.255 759.6589 148.1182 761.4421 155.143 763.0665 156.6879 763.2771 161.3432 767.44 163.2039 768.7689 166.6956 767.7737 170.0599 770.7414 176.4995 770.7765 181.0307 772.7193 183.9 782.4318 184.9248 784.2709 184.2373 785.864 188.4229 784.7534 190.4066 785.8891 191.8766 789.7491 192.5241 792.9659 195.3494 795.5274 201.8402 797.2661 203.7378 799 212.2186 796.26 217.2619 794.3027 217.8108 791.8953 221.1412 786.0542 223.2107 784.1858 226.5282 782.0099 227.2235 780.9871 225.3866 781.7512 222.7498 778.5554 221.6495 774.0158 223.876 770.2826 228.6249 770.2132 230.4221 767.8997 234.1139 763.15 233.8616 762.1422 237.2105 763.1424 243.8408 758.9695 248.2525 756.3048 250.1162 755.9988 256.3604 754.9728 259.8654 747.7727 259.8305 745.1176 261.2561 742.7 260.9326 741.8529 264.5403 739.7434 266.6066 735.2535 265.6029 732.1649 265.9604 727.0364 271.9311 722.4725 271.751 718.55 275.5583 715.3055 275.2246 712.7294 277.5957 711.6489 276.5908 706.9122 278.8689 706.1941 282.8401 702.8678 285.9403 702.231 288.8103 697.6963 290.4267 695.1592 292.7367 690.3932 287.6677 688.4764 288.3957 684.3511 285.9676 680.8712 288.6298 675.5403 287.1825 674.7821 283.6908 671.8766 280.8887 663.5707 280.7464 662.9265 277.8874 658.8016 278.2979 654.4022 277.5577 649.2347 278.3343 646.7308 280.8889 642.5168 281.7217 642.2404 279.3449 639.1106 278.7431 635.2939 280.1256 629.9461 278.9433 625.2609 280.6172 623.3162 279.9197 619.4222 280.6066 617.5462 277.2422 618.2473 271.6149 614.4311 268.486 609.4068 267.5797 603.6307 262.2345 599.0163 264.4695 598.1971 262.7996 592.9875 262.0059 591.9799 268.3912 589.5719 267.999 585.8056 269.9536 572.393 286.4197 577.4624 287.0686 576.018 289.0569 575.7108 292.3788 578.1869 295.7102 576.437 302.3324 576.7816 306.2021 574.7607 308.416 578.5331 311.4982 578.4457 312.9801 580.974 315.2988 581.1794 321.1062 584.4947 321.4486 586.4482 318.4632 592.5829 319.0138 597.2792 322.7508 599.48 322.6639 603.7588 319.5204 608.0589 318.4485 610.3029 321.2491 609.4165 325.739 611.9554 326.7521 614.1202 330.2983 619.4256 330.5993 622.4269 331.6051 624.2688 333.6573 627.9452 333.9672 632.4985 329.43 634.3606 329.1731 635.6447 331.5115 635.4532 335.7213 640.2774 336.8146 646.1335 341.6285 646.5591 343.5374 645.5636 348.3214 646.3166 352.4066 647.6787 353.3385 651.7126 350.6362 655.4035 349.797 659.4025 352.7947 659.1201 354.7033 656.8251 355.3725 651.5417 360.4751 650.7615 363.9686 645.8796 369.3635 643.2303 362.3499 640.4707 363.8484 641.9261 367.4109 639.4806 371.8895 638.5283 370.8159 635.3121 372.5624 632.451 375.65 632.4498 377.2944 629.8841 379.4964 630.2604 383.548 632.8019 386.5114 626.1053 389.7706 618.9668 390.8634 615.2766 393.675 612.6922 399.4371 608.7578 398.9046 608.1712 397.6585 604.0146 396.9047 602.4636 401.0232 602.1309 409.7178 599.3622 410.863 600.0055 414.6006 603.5584 418.0074 604.3132 423.3806 604.0947 430.2375 602.6208 433.2667 602.5655 436.4561 599.758 439.6746 596.5417 438.9011 591.6054 436.4109 588.2894 436.2898 588.2087 440.1155 586.4902 443.4524 587.6647 446.3105 588.172 452.698 586.6342 460.3338 581.6457 461.2268 576.1512 459.0458 573.4459 460.4727 569.1046 455.3539 561.3265 447.9893 561.6567 443.8914 557.8153 441.8419 557.8483 439.8734 553.9988 438.6929 548.3821 435.1363 550.1622 430.6958 547.7155 429.9938 545.7974 426.1809 543.7013 426.7672 537.7321 424.8172 536.7112 422.0151 534.4565 420.0444 529.5566 410.0418 529.4495 408.4779 526.8155 404.705 525.3481 399.9521 523.0037 400.3215 518.9841 403.9196 513.642 407.4152 511.3608 412.801 507.8276 418.0545 505.0038 419.9607 501.5827 425.3845 498.6676 428.3565 495.2981 430.4599 494.3408 433.2775 490.2527 434.597 485.9389 438.6436 481.9528 441.426 479.1288 446.0095 478.4937 450.2123 474.986 454.0933 474.6103 463.4873 472.6474 466.9571 472.9354 472.7597 473.7886 474.7212 472.3124 481.427 469.9412 483.8057 469.5497 488.1779 468.021 492.4319 468.9947 494.8177 469.7653 501.5326 468.9783 504.4843 469.6265 508.6944 465.7501 509.357 464.918 508.5195 461.7886 509.877 458.4613 508.5352 453.4797 507.8406 452.012 504.3083 448.702 503.6649 444.461 505.4368 441.5693 503.0508 437.4631 511.0792 430.9904 508.0423 424.579 508.3134 423.4481 514.7191 425.5185 517.8479 428.587 516.4808 430.3868 521.4013 428.0643 522.8035 435.5716 522.4396 433.8537 525.5359 435.0466 529.3915 431.6414 530.6183 430.4997 528.7531 429.752 531.1042 425.0727 533.1545 424.9535 537.7252 425.837 539.9791 424.1272 546.1724 428.2274 548.5955 433.2039 550.3186 439.7863 551.2519 442.3205 553.6858 448.9798 551.2908 448.0903 553.9199 449.8376 554.1138 452.7615 552.1268 456.3486 555.0238 458.2521 563.3049 460.839 567.227 462.4427 566.4682 467.0472 569.3179 467.7165 567.5892 462.7046 564.9827 465.1327 561.6489 467.0796 555.7321 467.412 552.6586 469.7907 549.6668 472.3985 548.8028 475.37 549.6381 477.2919 545.9593 479.9702 546.8796 481.9143 544.8904 487.0057 543.3517 491.5036 544.6629 495.6541 547.8013 501.6701 545.7521 505.1753 549.3887 506.8352 554.6475 507.3727 561.3488 507.0541 566.1237 507.8255 566.3466 504.6075 571.2553 508.6502 572.9874 508.1261 574.6709 507.8761 583.5311 502.7755 582.834 495.0732 587.2944 491.623 592.3256 493.3664 595.1711 495.8085 595.9392 494.8038 598.1377 499.2231 601.1518 494.2063 604.9143 489.769 609.0524 489.7624 607.8668 485.3596 606.8155 482.4914 608.6737 482.8191 611.1873 476.2646 611.2592 474.3659 614.1468 475.4649 615.318 474.5413 618.0604 471.5682 617.1732 470.0675 619.2291 467.3027 613.4574 464.9875 614.9158 462.5863 611.5977 453.1185 613.3772 451.8465 607.846 448.7361 607.0108 447.6574 604.8014 443.7886 603.4486 440.1273 609.5281 436.6161 609.2309 434.8501 612.4954 429.1017 616.692 423.4954 612.2717 420.0481 611.1932 417.6563 609.2878 415.1282 604.9522 408.9541 597.9811 407.3737 597.591 408.2805 592.9382 405.5394 592.6188 406.1261 583.388 404.2502 581.6515 399.3838 581.6353 401.746 576.0413 398.3489 575.8656 399.4885 569.5328 396.9432 569.2242 397.3368 566.3388 382.5055 563.5475 381.1996 564.0791 369.5932 562.0489 367.26 566.5193 366.4621 562.3346 360.3056 560.6919 360.1538 558.3894 351.993 561.433 339.5068 575.7097 336.1978 569.4 334.262 567.7578 334.8649 566.263 329.4519 564.5681 328.9601 562.6496 326.5931 561.3947 322.367 562.177 322.248 559.5374 320.023 560.4524 316.6257 560.0208 316.1649 561.3079 313.1266 561.5841 311.3669 563.2839 310.1202 567.807 305.7947 570.4394 305.2972 568.3796 297.2861 570.4855 298.8684 573.5746 291.1497 580.1995 283.9202 581.7857 279.4862 585.1863 275.5993 584.7533 270.729 587.0546 266.8748 590.6419 264.0105 592.3397 262.6075 589.4795 259.2365 589.9402 255.2229 593.6447 248.4861 593.8013 246.0168 599.4364 246.6476 602.3227 245.7235 605.4313 241.8752 608.2152 239.3062 613.2282 241.3607 616.136 242.2309 621.3687 241.8284 624.7931 240.0422 619.5534 237.8869 619.9836 237.7307 624.9854 234.7604 626.3773 229.6086 625.0333 229.3952 620.8529 226.5658 617.1501 223.3222 616.3591 220.061 613.1217 218.3107 609.9343 215.7187 608.2463 215.0909 606.0358 213.0443 604.9458 208.012 605.0882 206.8403 606.313 207.7684 601.6114 209.8884 602.6407 210.9788 599.0157 206.9372 595.9547 207.8896 595.4204 204.8934 592.4376 201.7397 587.5894 206.5972 585.1425 205.4935 578.2944 197.5116 570.6486 195.1787 570.172 188.0485 571.9499 186.3741 571.7743 186.4744 568.3001 187.8666 565.8731 187.0481 557.6294 186.1556 556.138 180.1639 554.5565 176.6655 552.0546 174.8002 556.5123 171.11 556.5877 172.0345 551.7434 165.4176 550.237 161.1855 552.5335 155.8919 553.0852 152.0661 549.6793 148.2334 544.2009 145.3246 546.2387 140.409 546.32 136.8067 547.7383 133.4955 551.7034 132.1093 551.6929 127.4206 545.393 124.1608 543.4794 120.6948 544.5273 119.8889 541.654 112.8691 544.4932 106.3954 545.8117 105.6508 546.656 98.1953 545.4998 95.3037 545.9719 92.8998 544.3621 89.6895 540.4724 84.2814 522.9878 86.2396 522.4622 84.3952 514.9601 84.9508 495.0529 84.0838 493.3816 77.4718 487.5425 74.089 487.1446 68.9242 484.8501 68.5727 485.9369 56.9422 481.0952 59.0998 478.8538 55.9671 473.5861 61.2627 470.6365 59.5506 467.5165 59.167 454.8749 57.4412 454.7216 56.1062 458.137 40.0628 453.6421 41.6233 448.2553 42.0814 444.2196 43.724 441.6083 41.3495 436.7622 43.6608 434.0246 41.3483 431.9357 37.0676 434.2545 34.5426 431.1201 30.1328 432.7961 29.5904 428.9754 27.9686 425.5103 27.2951 419.1791 24.2696 415.4916 22.3477 416.4917 18.4083 415.7771 15.3153 407.1487 9.4182 404.201 6.8576 404.8684 1 403.6808 2.3497 398.6656 5.1729 396.5034 8.0761 386.4852 8.5742 382.2796 10.7563 376.0021 11.9765 374.9412 14.8196 360.0293 19.283 360.9638 25.2577 354.5475 24.1961 353.2269 25.9862 349.5524 25.6911 345.8038 27.4091 339.6694 26.176 338.0983 28.0529 333.8053 30.9486 329.6345 36.7783 328.3042 43.4806 328.6353 46.3801 325.7698 48.5146 313.8076 48.5913 311.3847 47.0121 310.8034 50.2464 299.8105 61.5057 301.6541 69.0548 295.625 71.4271 295.7507 73.0824 292.3765 79.3119 291.0573 81.4886 281.7041 79.8239 272.8129 83.6177 272.2475 86.9254 273.7064 94.7912 282.1318 95.2279 283.8267 100.9502 287.1885 102.5594 287.1589 110.2595 289.3188 113.3561 289.2605 118.1956 290.6409 120.8312 288.9948 129.8524 289.9981 130.3482 293.4762 140.5546 294.8257 140.3927 291.5028 138.3196 287.5337 139.0992 283.9822 142.2958 278.0527 147.6532 254.1833 151.7272 245.242 162.1284 243.969 170.1355 239.5281 173.7845 243.7142 201.0725 263.8274 206.0478 271.514 239.6869 273.0909 241.7093 269.1556 242.9841 268.7359 248.8093 269.8128 249.7027 268.1953 253.6006 266.4755 258.9107 267.9831 266.256 265.9343 269.6605 261.9657 272.1731 260.9933 277.3303 261.5301 281.7046 255.3562 281.9853 253.6998 285.9566 245.1157 289.4688 239.9298 288.5985 237.1941 290.9066 235.6056 291.9942 233.1039 293.9827 232.8773 295.068 224.4031 297.7153 222.3682 302.0818 221.4977 306.01 223.6713 308.1972 223.2823 314.9357 225.0831 319.6506 224.7703 325.4063 219.2196 331.0511 218.8191 331.5683 211.2477 329.1286 205.209 329.386 202.3331 324.3116 200.5609 323.5476 198.9822 327.2837 189.7806 321.9146 183.6492 321.2934 180.1344 323.2755 176.5954 324.8469 178.3284 333.1109 178.6635 335.6314 177.7623 340.8508 180.2041 344.4683 176.8193 348.1658 174.4803 352.899 172.6176 358.109 167.6741 362.6505 166.0312 366.8668 167.4422 370.4597 167.2322 375.7044 160.7026 376.6189 157.6736 381.3122 153.9701 381.481 150.7061 384.8232 148.0657 385.0178 144.8637 389.2334 138.9264 391.8277 138.3087 392.8883 132.8821 395.0825 131.5218 397.2395 132.6807 397.9649 130.9717 402.3008 129.5092 404.8427 126.1376 406.747 125.9275 408.3792 128.4722 413.482 126.137 416.6522 127.1071 420.3611 123.7056 426.4163 121.0386 424.5123 119.4324 424.1127 114.6737 422.3903 108.1519 422.5398 103.3054 420.3384 95.3286 417.3808 95.0129 413.668 92.6072 412.1533 88.7769 413.2804 82.6515 416.1186 78.975 425.3971 81.3131 428.4497 85.0248 428.9177 84.3568 434.3836 88.884 435.3786 85.5751 443.3537 87.1445 442.7894 89.6238 448.1741 90.9672 448.0559 92.127 452.8682 94.4261 453.312 98.631 458.3817 99.0258 461.0151 100.4841 462.23 103.1402 464.8584 102.0268 468.0114 102.4647 468.586 100.2557 472.1649 95.5675 486.0299 93.4945 490.7842 90.0542 495.6167 89.4885 500.2112 92.7025 504.46 92.3381 505.0705 88.4089 508.3678 84.028 504.3102 83.3802 504.0975 80.9595 505.7971 78.8618 510.4512 75.8585 514.8442 68.4533 514.9219 66.0612 510.5657 63.8485 509.0333 61.163 515.4721 55.4949 516.9471 53.1011 515.3333 50.1571 517.0869 47.1632 514.0198 45.7048 514.4448 42.8677 518.0242 40.9374 520.4063 35.3002 521.8613 35.8988 523.5218 31.2306 518.4209 27.5346 520.7605 26.3199 520.9519 24.4586 525.6625 22.803 527.3956 20.141 530.6699 19.7414 532.1167 21.025 533.0353 18.927 536.1535 17.0528 538.8057 7.5119 542.1454 5.2225 546.8062 4.8007 547.4486 1 550.2327 2.8255 551.4787 1.0747 555.2552 3.3931 555.4162 7.6933 557.9226 7.998 558.703 13.9037 557.1964 14.5295 559.5079 17.5957 559.2062 19.2231 563.583 19.6343 568.4965 21.1934 584.1243 24.45 587.6154 22.7731 589.9688 24.6176 593.056 17.5468 601.6696 18.2583 601.9311 28.8654 603.2032 31.1505 608.1266 32.888 611.7466 38.3504 613.8998 39.4629 612.9387 42.3612 610.9086 42.3211 608.5886 48.7067 605.8484 50.4567 609.6039 58.478 611.5612 58.9194 611.3847 61.0209 614.7628 63.4495 618.2513 63.8184 619.5208 65.4078 624.9496 63.2099 630.0332 67.1239 632.2197 70.7783 635.1208 68.7762 638.7108 71.6529 634.4934 73.3981 634.0975 77.6795 633.117 78.5757 634.8561 83.0712 636.1164 82.4129 638.3641 85.037 640.8395 84.8836 643.9378 83.1612 645.821 83.995 648.473 88.3965 651.1894 88.447 653.2189 91.2137 657.0807 92.1764 658.7459 94.1392 658.3141 97.2472 664.6649 96.721 668.5533 99.7319 670.9854 99.4141 673.143 101.266 672.1103 104.4226 673.8581 107.0239 677.4161 108.7186 680.5026 111.3403 683.5633 109.5418 687.7154 109.4656 689.2958 108.4044 691.2089 113.4607 690.7788 114.4526 695.9801 116 697.8955 119.78 704.171 122.126 711.3332 122.0841 718.4349 124.8977 721.3946 127.3057 Z"/>
</g>
</svg>